<?xml version="1.0" encoding="UTF-8" standalone="no"?>
<svg
   version="1.0"
   width="500.000000pt"
   height="500.000000pt"
   viewBox="0 0 500.000000 500.000000"
   preserveAspectRatio="xMidYMid meet"
   id="svg88"
   sodipodi:docname="pocket_pepper.svg"
   inkscape:version="1.3.2 (091e20e, 2023-11-25)"
   xmlns:inkscape="http://www.inkscape.org/namespaces/inkscape"
   xmlns:sodipodi="http://sodipodi.sourceforge.net/DTD/sodipodi-0.dtd"
   xmlns="http://www.w3.org/2000/svg"
   xmlns:svg="http://www.w3.org/2000/svg">
  <defs
     id="defs88" />
  <sodipodi:namedview
     id="namedview88"
     pagecolor="#ffffff"
     bordercolor="#000000"
     borderopacity="0.25"
     inkscape:showpageshadow="2"
     inkscape:pageopacity="0.0"
     inkscape:pagecheckerboard="0"
     inkscape:deskcolor="#d1d1d1"
     inkscape:document-units="pt"
     inkscape:zoom="0.2779781"
     inkscape:cx="149.29234"
     inkscape:cy="654.72784"
     inkscape:window-width="1920"
     inkscape:window-height="1027"
     inkscape:window-x="0"
     inkscape:window-y="25"
     inkscape:window-maximized="1"
     inkscape:current-layer="svg88" />
  <g
     transform="matrix(0.16880266,0,0,-0.16880266,-155.97806,702.8089)"
     fill="#000000"
     stroke="none"
     id="g88">
    <path
       d="m 2641,4109 c -35,-10 -103,-23 -152,-28 -112,-13 -205,-51 -559,-230 -24,-13 -33,-54 -26,-114 8,-64 20,-70 56,-32 21,23 32,26 85,24 74,-2 278,36 455,86 89,24 144,35 164,31 60,-12 260,-170 288,-226 10,-22 18,-65 20,-114 l 2,-79 -34,-29 c -19,-16 -73,-47 -120,-70 -47,-22 -115,-55 -152,-74 -74,-38 -122,-43 -169,-18 -29,14 -33,14 -77,-8 -25,-13 -48,-29 -50,-37 -3,-10 6,-8 30,7 45,28 63,28 82,0 29,-40 20,-52 -51,-76 l -68,-22 -17,21 c -30,36 -23,81 20,129 36,41 42,43 187,81 138,36 304,103 320,129 9,15 -4,12 -85,-16 -41,-14 -139,-43 -218,-65 -179,-49 -234,-76 -268,-131 -22,-35 -26,-49 -22,-96 4,-45 10,-60 32,-79 35,-30 51,-29 160,7 50,17 141,44 201,61 141,41 263,90 320,129 83,57 149,73 209,50 25,-9 25,-10 11,-50 -11,-31 -12,-42 -2,-45 90,-32 139,-53 177,-80 46,-33 130,-79 134,-73 1,2 9,37 18,78 9,41 34,125 55,185 22,61 48,152 58,204 21,107 26,96 -70,138 -28,12 -75,38 -105,58 -44,30 -60,35 -86,30 -33,-6 -36,-4 -158,103 -63,55 -243,166 -345,213 -121,55 -147,58 -250,28 z m 236,-73 c 116,-56 276,-162 361,-237 37,-33 84,-67 104,-77 27,-12 38,-23 38,-40 0,-31 -21,-114 -33,-129 -27,-36 -115,5 -144,66 -18,38 -19,39 -83,43 -75,4 -124,32 -225,128 -33,31 -82,75 -109,98 l -49,42 -161,-4 c -158,-4 -162,-4 -230,-37 -49,-23 -85,-33 -120,-33 -38,-1 -62,-8 -91,-28 -38,-25 -77,-38 -153,-52 -32,-5 -33,-4 -30,22 3,23 11,30 58,47 31,11 96,41 145,67 133,68 282,128 324,129 20,0 79,8 131,18 145,29 164,27 267,-23 z m 588,-332 c 17,-17 15,-37 -12,-154 -18,-77 -68,-190 -112,-254 -24,-34 -38,-46 -57,-46 -14,0 -24,3 -22,8 2,4 25,51 51,105 58,119 97,233 104,304 6,56 19,66 48,37 z"
       id="path1" />
    <path
       d="m 2645,3795 c -153,-47 -321,-83 -446,-93 l -80,-7 34,-40 c 72,-84 115,-254 89,-348 -10,-35 -9,-37 12,-37 12,0 35,13 50,29 43,45 119,78 282,120 84,22 169,47 190,56 22,9 60,23 86,31 52,16 64,35 54,88 -6,33 -52,79 -150,150 -33,24 -99,58 -108,55 -2,0 -7,-2 -13,-4 z m -215,-85 c 0,-5 -5,-10 -11,-10 -5,0 -7,5 -4,10 3,6 8,10 11,10 2,0 4,-4 4,-10 z m -63,-16 c -3,-3 -12,-4 -19,-1 -8,3 -5,6 6,6 11,1 17,-2 13,-5 z m -37,-15 c 0,-5 -4,-8 -9,-4 -5,3 -12,1 -16,-4 -3,-6 -12,-8 -20,-4 -8,3 -15,1 -15,-4 0,-12 -57,-15 -65,-3 -3,5 0,10 7,11 63,5 91,9 96,14 9,9 22,6 22,-6 z"
       id="path2" />
    <path
       d="m 2003,3693 c -23,-9 -14,-20 30,-37 87,-33 140,-139 141,-281 1,-73 -3,-98 -20,-132 -12,-24 -18,-43 -15,-43 38,0 86,119 78,192 -12,95 -45,183 -89,233 -34,38 -94,79 -110,74 -2,0 -9,-3 -15,-6 z"
       id="path3" />
    <path
       d="m 1988,3630 c 122,-96 163,-329 74,-422 -26,-29 -20,-34 24,-22 28,8 64,114 64,189 0,100 -63,221 -141,270 -62,39 -76,29 -21,-15 z"
       id="path4" />
    <path
       d="m 1782,3641 c -8,-5 9,-10 48,-14 87,-10 127,-31 153,-83 23,-49 17,-67 -13,-39 -24,22 -24,15 -5,-49 8,-27 15,-86 15,-130 0,-86 -10,-112 -63,-168 -14,-15 -22,-30 -18,-32 14,-9 88,32 124,68 43,43 51,77 45,189 -6,99 -34,162 -102,225 -43,40 -48,42 -108,42 -35,0 -69,-4 -76,-9 z"
       id="path5" />
    <path
       d="m 1712,3594 c -88,-62 -69,-289 33,-391 47,-47 83,-55 134,-29 51,27 66,62 66,156 -1,71 -5,95 -28,145 -35,74 -51,93 -102,116 -49,23 -74,24 -103,3 z m 92,-110 c 7,-18 0,-34 -15,-34 -5,0 -9,11 -9,25 0,28 15,34 24,9 z m -64,-44 c 0,-20 -5,-30 -15,-30 -18,0 -20,31 -3,48 17,17 18,16 18,-18 z m 50,-51 c 0,-10 -4,-19 -9,-19 -12,0 -23,29 -15,41 8,14 24,0 24,-22 z m 64,-29 c -14,-14 -39,14 -29,31 5,8 12,6 23,-5 11,-11 13,-19 6,-26 z m -94,-15 c 6,-8 10,-22 8,-31 -3,-15 -5,-14 -27,3 -14,11 -21,25 -17,31 10,16 21,15 36,-3 z m 90,-46 c 0,-20 -15,-26 -25,-9 -9,15 3,43 15,35 5,-3 10,-15 10,-26 z m -70,-36 c 0,-21 -3,-24 -9,-14 -5,8 -7,20 -4,28 8,21 13,15 13,-14 z"
       id="path6" />
    <path
       d="m 2210,3220 c -9,-17 -8,-20 12,-20 24,0 56,16 48,23 -3,3 -15,8 -27,11 -16,5 -25,2 -33,-14 z"
       id="path7" />
    <path
       d="m 1590,3201 c -25,-47 36,-83 64,-38 8,12 8,22 0,35 -16,25 -51,27 -64,3 z"
       id="path8" />
    <path
       d="m 1660,3146 c -6,-8 -10,-25 -8,-38 2,-18 10,-24 35,-26 28,-3 33,1 39,23 11,45 -37,75 -66,41 z"
       id="path9" />
    <path
       d="m 1771,3106 c -8,-10 -11,-26 -7,-42 5,-20 12,-25 33,-22 14,2 31,11 37,21 23,36 -36,76 -63,43 z"
       id="path10" />
    <path
       d="m 1550,3085 c -26,-32 13,-81 48,-59 34,22 22,74 -18,74 -10,0 -23,-7 -30,-15 z"
       id="path11" />
    <path
       d="m 1883,3049 c -31,-11 -30,-46 2,-61 19,-8 28,-8 40,2 36,30 3,76 -42,59 z"
       id="path12" />
    <path
       d="m 1673,3043 c -20,-8 -15,-51 7,-63 40,-22 80,26 48,58 -12,12 -33,14 -55,5 z"
       id="path13" />
    <path
       d="m 1766,2992 c -15,-46 25,-75 58,-42 16,16 18,24 10,38 -16,25 -61,28 -68,4 z"
       id="path14" />
    <path
       d="m 1570,2970 c -15,-28 4,-60 35,-60 31,0 50,32 35,60 -6,12 -21,20 -35,20 -14,0 -29,-8 -35,-20 z"
       id="path15" />
    <path
       d="m 1465,2936 c -21,-31 -5,-66 28,-66 46,0 66,59 28,80 -29,15 -39,13 -56,-14 z"
       id="path16" />
    <path
       d="m 1898,2924 c -11,-22 -10,-28 7,-40 31,-23 64,-18 71,11 13,53 -56,79 -78,29 z"
       id="path17" />
    <path
       d="m 1672,2918 c -20,-20 -14,-48 14,-60 29,-14 57,-2 62,26 8,37 -48,62 -76,34 z"
       id="path18" />
    <path
       d="m 1780,2890 c -12,-22 2,-60 21,-60 18,0 46,19 53,36 15,40 -54,62 -74,24 z"
       id="path19" />
    <path
       d="m 1562,2868 c -22,-22 -14,-57 13,-64 45,-11 71,29 39,60 -19,19 -36,20 -52,4 z"
       id="path20" />
    <path
       d="m 1858,2839 c -38,-21 -11,-74 34,-67 30,4 38,46 12,65 -21,15 -24,15 -46,2 z"
       id="path21" />
    <path
       d="m 1952,2818 c -16,-16 -15,-33 3,-48 19,-15 61,-6 69,16 13,35 -44,60 -72,32 z"
       id="path22" />
    <path
       d="m 1649,2804 c -18,-22 1,-49 36,-49 35,0 54,27 36,49 -8,9 -24,16 -36,16 -12,0 -28,-7 -36,-16 z"
       id="path23" />
    <path
       d="m 1472,2798 c -16,-16 -15,-33 4,-52 21,-22 51,-20 64,4 22,42 -34,82 -68,48 z"
       id="path24" />
    <path
       d="m 1372,2788 c -16,-16 -15,-33 3,-48 21,-18 55,-3 55,25 0,32 -35,46 -58,23 z"
       id="path25" />
    <path
       d="m 1754,2786 c -13,-33 0,-51 36,-51 38,0 52,24 30,50 -16,19 -59,19 -66,1 z"
       id="path26" />
    <path
       d="m 1572,2748 c -31,-31 11,-88 50,-67 34,18 17,79 -22,79 -9,0 -21,-5 -28,-12 z"
       id="path27" />
    <path
       d="m 1871,2722 c -15,-28 13,-64 47,-60 51,6 37,78 -14,78 -13,0 -28,-8 -33,-18 z"
       id="path28" />
    <path
       d="m 2108,2729 c -21,-12 -23,-40 -6,-57 18,-18 56,-14 68,7 13,25 13,27 -6,45 -18,18 -32,20 -56,5 z"
       id="path29" />
    <path
       d="m 1993,2724 c -7,-3 -13,-16 -13,-29 0,-44 50,-60 74,-22 20,32 -22,67 -61,51 z"
       id="path30" />
    <path
       d="m 1686,2704 c -29,-28 -12,-64 30,-64 33,0 49,25 36,55 -13,29 -43,33 -66,9 z"
       id="path31" />
    <path
       d="m 1443,2703 c -18,-7 -16,-48 1,-63 23,-19 61,-8 64,18 6,40 -26,61 -65,45 z"
       id="path32" />
    <path
       d="m 1327,2684 c -14,-14 -7,-65 9,-71 26,-10 49,11 49,43 0,24 -5,30 -25,32 -14,2 -29,0 -33,-4 z"
       id="path33" />
    <path
       d="m 1780,2675 c -10,-12 -10,-21 -1,-41 13,-29 47,-30 65,-1 23,37 -36,76 -64,42 z"
       id="path34" />
    <path
       d="m 1537,2642 c -23,-25 -21,-39 8,-58 20,-13 28,-14 40,-4 21,18 19,57 -4,70 -25,13 -25,13 -44,-8 z"
       id="path35" />
    <path
       d="m 2056,2624 c -9,-8 -16,-19 -16,-24 0,-13 30,-40 45,-40 15,0 45,26 45,39 0,11 -35,41 -48,41 -6,0 -18,-7 -26,-16 z"
       id="path36" />
    <path
       d="m 1640,2612 c -24,-19 -19,-48 10,-57 42,-13 72,25 44,56 -21,23 -26,23 -54,1 z"
       id="path37" />
    <path
       d="m 1844,2606 c -12,-31 0,-51 30,-51 36,0 56,26 37,49 -17,20 -60,21 -67,2 z"
       id="path38" />
    <path
       d="m 1943,2604 c -9,-24 10,-49 38,-49 20,0 24,5 24,30 0,25 -4,30 -28,33 -18,2 -29,-2 -34,-14 z"
       id="path39" />
    <path
       d="m 1240,2595 c -14,-17 -5,-51 16,-59 24,-9 54,12 54,38 0,35 -47,49 -70,21 z"
       id="path40" />
    <path
       d="m 1395,2599 c -13,-21 4,-57 30,-61 33,-7 59,26 44,54 -11,20 -63,25 -74,7 z"
       id="path41" />
    <path
       d="m 1738,2589 c -26,-15 -22,-48 7,-61 41,-19 75,28 43,60 -14,14 -27,15 -50,1 z"
       id="path42" />
    <path
       d="m 2148,2564 c -11,-23 -10,-29 11,-45 21,-17 26,-18 45,-6 27,18 31,40 11,61 -24,24 -54,20 -67,-10 z"
       id="path43" />
    <path
       d="m 1310,2529 c -9,-16 -8,-26 5,-45 18,-27 19,-28 46,-14 21,12 25,50 7,68 -18,18 -46,14 -58,-9 z"
       id="path44" />
    <path
       d="m 1518,2539 c -38,-21 -11,-74 34,-67 26,3 37,41 18,64 -14,16 -28,17 -52,3 z"
       id="path45" />
    <path
       d="m 2016,2537 c -36,-26 4,-84 42,-61 24,16 27,45 6,61 -10,7 -21,13 -24,13 -3,0 -14,-6 -24,-13 z"
       id="path46" />
    <path
       d="m 1632,2518 c -27,-27 -6,-68 35,-68 32,0 46,31 27,58 -17,24 -44,28 -62,10 z"
       id="path47" />
    <path
       d="m 1880,2516 c -6,-8 -10,-25 -8,-38 4,-30 56,-38 75,-12 17,23 16,29 -3,48 -19,20 -48,20 -64,2 z"
       id="path48" />
    <path
       d="m 1404,2489 c -19,-22 -13,-43 19,-63 12,-8 21,-5 36,8 26,23 26,38 3,59 -24,22 -35,21 -58,-4 z"
       id="path49" />
    <path
       d="m 1769,2486 c -9,-20 -9,-29 1,-41 28,-34 87,5 64,43 -18,28 -52,27 -65,-2 z"
       id="path50" />
    <path
       d="m 1198,2489 c -10,-5 -18,-18 -18,-27 0,-43 61,-58 81,-20 10,18 8,24 -11,40 -25,21 -29,21 -52,7 z"
       id="path51" />
    <path
       d="m 2090,2466 c -6,-8 -10,-25 -8,-38 4,-30 56,-38 74,-13 30,41 -33,90 -66,51 z"
       id="path52" />
    <path
       d="m 2194,2466 c -3,-8 -4,-25 -2,-38 2,-18 9,-23 32,-23 36,0 56,27 40,53 -14,22 -62,28 -70,8 z"
       id="path53" />
    <path
       d="m 1972,2448 c -28,-28 -1,-75 37,-63 27,8 32,29 15,54 -17,24 -34,27 -52,9 z"
       id="path54" />
    <path
       d="m 1298,2429 c -42,-24 -1,-82 42,-59 22,12 26,40 8,58 -14,14 -27,15 -50,1 z"
       id="path55" />
    <path
       d="m 1486,2424 c -29,-29 -12,-64 31,-64 19,0 43,25 43,44 0,10 -32,36 -45,36 -7,0 -21,-7 -29,-16 z"
       id="path56" />
    <path
       d="m 1587,2414 c -4,-4 -7,-18 -7,-30 0,-29 42,-43 66,-23 25,21 13,54 -21,57 -17,2 -34,0 -38,-4 z"
       id="path57" />
    <path
       d="m 1702,2408 c -35,-35 15,-99 53,-68 30,25 12,80 -25,80 -9,0 -21,-5 -28,-12 z"
       id="path58" />
    <path
       d="m 1810,2399 c -15,-27 4,-51 38,-47 29,4 48,28 39,52 -9,24 -64,21 -77,-5 z"
       id="path59" />
    <path
       d="m 2287,2405 c -21,-20 -10,-54 19,-61 46,-12 75,44 35,66 -26,14 -37,13 -54,-5 z"
       id="path60" />
    <path
       d="m 1374,2376 c -13,-33 0,-51 36,-51 32,0 35,2 35,30 0,27 -4,30 -33,33 -22,2 -34,-2 -38,-12 z"
       id="path61" />
    <path
       d="m 2060,2365 c -15,-19 -4,-52 21,-60 38,-12 65,35 37,63 -16,16 -43,15 -58,-3 z"
       id="path62" />
    <path
       d="m 2170,2361 c -15,-28 21,-71 47,-55 23,14 28,41 13,59 -17,21 -47,19 -60,-4 z"
       id="path63" />
    <path
       d="m 1170,2351 c -16,-31 4,-63 37,-59 55,7 55,69 0,76 -18,2 -29,-3 -37,-17 z"
       id="path64" />
    <path
       d="m 1963,2363 c -18,-7 -16,-48 2,-63 21,-17 55,-3 55,24 0,36 -24,53 -57,39 z"
       id="path65" />
    <path
       d="m 1862,2338 c -6,-6 -12,-23 -12,-36 0,-20 4,-23 33,-20 28,3 32,6 32,33 0,22 -5,31 -20,33 -11,1 -26,-3 -33,-10 z"
       id="path66" />
    <path
       d="m 1308,2319 c -22,-13 -23,-52 -2,-70 33,-27 72,33 44,67 -14,16 -19,17 -42,3 z"
       id="path67" />
    <path
       d="m 1487,2323 c -13,-12 -7,-51 9,-57 45,-17 70,-1 60,40 -5,18 -13,24 -35,24 -15,0 -31,-3 -34,-7 z"
       id="path68" />
    <path
       d="m 1605,2307 c -10,-8 -16,-23 -13,-38 4,-33 63,-41 73,-10 12,37 -29,70 -60,48 z"
       id="path69" />
    <path
       d="m 2360,2305 c -20,-24 0,-50 36,-50 26,0 29,4 29,30 0,25 -4,31 -26,33 -15,2 -31,-4 -39,-13 z"
       id="path70" />
    <path
       d="m 1762,2298 c -16,-16 -15,-28 4,-49 19,-21 51,-14 59,13 12,37 -35,64 -63,36 z"
       id="path71" />
    <path
       d="m 2235,2289 c -12,-18 4,-57 27,-65 30,-9 62,29 48,57 -12,21 -64,27 -75,8 z"
       id="path72" />
    <path
       d="m 2123,2282 c -11,-7 -16,-26 -14,-49 1,-17 36,-34 55,-27 22,8 22,70 0,78 -20,8 -26,7 -41,-2 z"
       id="path73" />
    <path
       d="m 1400,2265 c -15,-18 -4,-52 19,-60 40,-12 70,20 51,56 -13,22 -52,25 -70,4 z"
       id="path74" />
    <path
       d="m 2002,2268 c -18,-18 -15,-43 9,-64 24,-22 52,-10 57,25 6,41 -38,67 -66,39 z"
       id="path75" />
    <path
       d="m 1896,2254 c -20,-19 -20,-38 -2,-54 23,-19 61,-8 64,18 7,44 -32,67 -62,36 z"
       id="path76" />
    <path
       d="m 1143,2137 c -2,-4 3,-14 11,-23 13,-13 16,-43 16,-169 0,-92 -4,-156 -10,-160 -5,-3 -10,-13 -10,-21 0,-11 15,-14 66,-14 64,0 66,1 59,23 -4,12 -9,36 -12,53 l -5,31 61,6 c 91,10 137,39 160,100 25,64 -34,161 -104,172 -53,8 -227,10 -232,2 z m 225,-99 c 6,-6 12,-23 12,-39 0,-35 -27,-51 -78,-47 -35,3 -37,5 -40,42 -5,61 1,69 51,61 23,-4 48,-12 55,-17 z"
       id="path77" />
    <path
       d="m 1665,2136 c -74,-33 -121,-120 -113,-206 9,-96 67,-160 159,-175 145,-25 271,136 214,272 -22,52 -42,72 -100,99 -56,27 -115,30 -160,10 z m 141,-110 c 88,-88 -5,-218 -115,-161 -50,25 -66,104 -30,149 44,55 97,60 145,12 z"
       id="path78" />
    <path
       d="m 2135,2133 c -79,-41 -115,-100 -115,-186 0,-171 198,-259 317,-141 19,20 33,36 32,37 -2,1 -19,13 -37,25 l -34,24 -21,-20 c -68,-64 -167,-9 -167,91 0,27 8,42 35,66 42,36 75,39 129,12 37,-19 38,-19 57,0 10,10 24,19 29,19 22,0 8,27 -22,45 -77,47 -149,57 -203,28 z"
       id="path79" />
    <path
       d="m 2460,2135 c 0,-8 5,-15 10,-15 6,0 10,-61 10,-164 0,-133 -3,-166 -15,-176 -23,-19 -8,-30 45,-30 75,0 77,2 72,70 -3,39 0,65 8,75 10,12 19,5 56,-44 24,-32 44,-65 44,-74 0,-9 13,-16 38,-19 41,-6 102,1 102,11 -1,3 -36,51 -80,105 -64,80 -77,103 -69,117 5,10 38,47 74,83 36,36 65,67 65,70 0,4 -29,6 -65,6 -53,0 -67,-3 -73,-18 -10,-24 -85,-122 -94,-122 -17,0 -21,74 -5,101 8,15 13,30 9,33 -3,3 -34,6 -69,6 -49,0 -63,-3 -63,-15 z"
       id="path80" />
    <path
       d="m 2906,2132 c 13,-28 23,-335 11,-350 -5,-7 -8,-14 -6,-17 3,-2 72,-5 154,-6 l 150,-1 3,46 c 2,32 -1,46 -10,47 -7,0 -55,0 -105,-1 l -93,-1 v 30 31 h 65 65 v 40 40 h -65 -65 v 29 c 0,28 2,30 55,36 55,7 95,4 128,-10 15,-6 17,-1 17,50 0,47 -3,56 -15,51 -8,-3 -22,-9 -30,-12 -8,-3 -15,-2 -15,3 0,5 -57,10 -126,11 -115,1 -125,-1 -118,-16 z"
       id="path81" />
    <path
       d="m 3300,2109 c 0,-21 -3,-44 -6,-52 -5,-13 4,-14 54,-10 56,5 59,4 65,-18 12,-43 8,-234 -5,-247 -18,-18 -5,-24 53,-26 l 52,-1 -2,149 -2,149 55,-5 56,-5 2,39 c 0,21 1,43 2,49 1,7 -51,11 -161,13 l -163,1 z"
       id="path82" />
    <path
       d="m 1150,1625 c 0,-8 5,-17 10,-20 6,-4 10,-70 10,-166 0,-99 -4,-159 -10,-159 -5,0 -10,-9 -10,-20 0,-18 7,-20 54,-20 30,0 61,3 70,6 17,7 22,34 6,34 -5,0 -10,15 -10,34 v 33 l 67,6 c 74,7 104,24 141,78 39,57 19,131 -51,183 -22,16 -45,20 -152,22 -100,2 -125,0 -125,-11 z m 218,-91 c 49,-34 15,-94 -55,-94 h -43 v 55 55 h 38 c 21,0 48,-7 60,-16 z"
       id="path83" />
    <path
       d="m 1570,1624 c 0,-6 7,-17 15,-24 23,-19 22,-296 -2,-322 -10,-11 -13,-22 -7,-28 5,-5 77,-10 159,-11 l 150,-2 3,56 c 2,45 0,57 -12,57 -8,0 -18,-4 -21,-10 -3,-5 -42,-10 -86,-10 h -79 v 35 35 h 59 c 63,0 71,7 71,56 0,23 -3,24 -65,24 h -65 v 35 35 h 78 c 47,0 83,-5 90,-12 16,-16 18,-11 25,47 l 5,50 h -159 c -111,0 -159,-3 -159,-11 z"
       id="path84" />
    <path
       d="m 1980,1627 c 0,-9 5,-19 10,-22 14,-9 13,-318 -1,-332 -20,-20 1,-33 55,-33 53,0 91,20 66,35 -5,3 -10,24 -10,46 v 39 h 55 c 136,0 215,114 149,215 -30,47 -68,58 -201,63 -107,4 -123,2 -123,-11 z m 221,-87 c 22,-12 26,-59 7,-78 -7,-7 -36,-12 -65,-12 h -53 v 50 50 h 46 c 25,0 54,-5 65,-10 z"
       id="path85" />
    <path
       d="m 2410,1624 c 0,-7 5,-16 10,-19 14,-9 13,-318 -1,-332 -21,-21 2,-33 61,-33 61,0 80,11 60,35 -6,7 -10,29 -8,47 l 3,33 68,6 c 77,6 111,26 139,81 23,45 16,96 -18,137 -34,41 -65,49 -196,54 -93,3 -118,2 -118,-9 z m 218,-90 c 22,-15 28,-48 13,-72 -5,-8 -29,-14 -57,-15 l -49,-2 -3,53 -3,52 h 38 c 21,0 49,-7 61,-16 z"
       id="path86" />
    <path
       d="m 2840,1624 c 0,-6 7,-17 15,-24 18,-15 22,-305 3,-327 -21,-26 6,-32 152,-34 l 145,-1 3,57 c 3,56 3,57 -20,50 -13,-5 -57,-9 -98,-9 l -75,-1 -3,32 -3,32 63,3 63,3 3,38 3,37 h -65 -66 v 36 36 l 78,-5 c 42,-2 87,-7 100,-12 21,-7 22,-5 22,46 v 54 h -160 c -112,0 -160,-3 -160,-11 z"
       id="path87" />
    <path
       d="m 3257,1632 c -4,-5 0,-15 8,-22 22,-18 22,-328 1,-336 -8,-3 -12,-12 -9,-20 4,-10 23,-14 68,-14 66,0 85,11 65,35 -6,7 -10,29 -8,47 2,28 7,34 30,36 24,3 30,-2 47,-40 11,-24 22,-51 25,-60 4,-15 17,-18 65,-18 33,0 63,5 66,10 4,6 -7,26 -24,45 -17,20 -37,49 -46,65 -14,27 -14,30 5,40 47,25 65,117 33,171 -28,46 -73,61 -204,67 -73,3 -119,1 -122,-6 z m 221,-98 c 27,-19 29,-60 3,-74 -11,-5 -38,-10 -60,-10 h -41 v 50 50 h 38 c 21,0 48,-7 60,-16 z"
       id="path88" />
  </g>
</svg>
